<?xml version="1.0" encoding="UTF-8" standalone="no"?>
<!-- Created with Inkscape (http://www.inkscape.org/) -->
<svg xmlns:inkscape="http://www.inkscape.org/namespaces/inkscape"
     xmlns:rdf="http://www.w3.org/1999/02/22-rdf-syntax-ns#" xmlns="http://www.w3.org/2000/svg"
     xmlns:xlink="http://www.w3.org/1999/xlink" xmlns:ns1="http://sozi.baierouge.fr"
     xmlns:cc="http://creativecommons.org/ns#" xmlns:sodipodi="http://sodipodi.sourceforge.net/DTD/sodipodi-0.dtd"
     xmlns:dc="http://purl.org/dc/elements/1.1/" id="svg5152" version="1.1" viewBox="0 0 962.99 932.21"
     inkscape:version="0.91 r13725">
    <rect id="rect4506" style="fill:#ededed" rx="6.2192" height="777" width="962.99" y="109.16" x="0"/>
    <text id="text4440" y="29.160156" x="365" style="font-size:40px;font-weight:bold;fill:#666666">HTML</text>
    <text id="text5158" y="203.79015" x="44.155575" style="font-size:48px;fill:#333333">
        <tspan id="tspan5764" style="font-size:48px">CSS3</tspan>
    </text>
    <text id="text4444" y="504.77341" x="338.79739" style="font-size:28px;fill:#666666">header</text>
    <text id="text4448" y="460.48517" x="90.854111" style="font-size:28px;fill:#666666">animation</text>
    <text id="text4452" y="536.43231" x="94.285751" style="font-size:28px;fill:#666666">transform</text>
    <text id="text4456" y="618.133" x="111.93614" style="font-size:28px;fill:#666666">gradient</text>
    <text id="text4460" y="806.6543" x="274.91953" style="font-size:28px;fill:#666666">background-image</text>
    <text id="text4470" y="658.97339" x="351.08841" style="font-size:28px;fill:#666666">article</text>
    <text id="text4474" y="875.03076" x="442.7532" style="font-size:28px;fill:#666666">&lt;html&gt;</text>
    <text id="text4482" y="320.85944" x="682.49847" style="font-size:48px;fill:#4d4d4d">SVG</text>
    <text id="text4486" y="259.51514" x="681.59613" style="font-size:48px;fill:#4d4d4d">MathML</text>
    <text id="text4498" y="743.56091" x="104.59399" style="font-size:28px;fill:#666666">opacity</text>
    <text id="text4516" y="443.07199" x="362.54544" style="font-size:28px;fill:#666666">video</text>
    <text id="text4530" y="682.57306" x="57.414711" style="font-size:28px;fill:#666666">flex</text>
    <text id="text4540" y="581.52814" x="724.25201" style="font-size:28px;fill:#666666">Web Worker</text>
    <text id="text4548" y="373.03088" x="29.45372" style="font-size:28px;fill:#666666">Media Queries</text>
    <text id="text4552" y="646.98724" x="724.25201" style="font-size:28px;fill:#666666">Local Storage</text>
    <text id="text4556" y="715.16016" x="724.25201" style="font-size:28px;fill:#666666">Session Storage</text>
    <text id="text4560" y="785.80084" x="724.25201" style="font-size:28px;fill:#666666">Canvas</text>
    <text id="text4979" y="469.9519" x="711.3551" style="font-size:48px;fill:#333333">
        <tspan id="tspan5766" style="font-size:48px">JavaScript</tspan>
    </text>
    <path id="path4496" style="stroke:#ff6600;stroke-width:15" d="m396.88 264.72h-130.04"/>
    <path id="path4504" style="stroke:#edca34;stroke-width:20;stroke-linecap:round;fill:none"
          d="m464.77 557.14h117.1c34.68 0 24.98-25.93 25.89-46.92-0.1-27.58-2.69-42.01 20.23-42.01s60.89-0.22 60.89-0.22v432.43"/>
    <circle id="circle5181" style="stroke:#edca34;stroke-width:10;fill:#ededed" transform="translate(38,9.1602)"
            cy="560" cx="650" r="20"/>
    <circle id="circle5183" style="stroke:#edca34;stroke-width:10;fill:#ededed" transform="translate(38,9.1602)"
            cy="630" cx="650" r="20"/>
    <circle id="circle5185" style="stroke:#edca34;stroke-width:10;fill:#ededed" transform="translate(38,9.1602)"
            cy="700" cx="650" r="20"/>
    <circle id="circle5187" style="stroke:#edca34;stroke-width:10;fill:#ededed" transform="translate(38,9.1602)"
            cy="770" cx="650" r="20"/>
    <path id="path4502" style="stroke:#fcab04;stroke-width:20;fill:none"
          d="m479.67 377.08h103.56c53.76 0 66.64-1.31 66.64-43.8v-139.16"/>
    <path id="path4508" style="fill:#fcab04"
          d="m665.86 188.47a16.895 16.895 0 1 1 -33.79 0 16.895 16.895 0 1 1 33.79 0z"/>
    <circle id="circle5191" style="stroke:#fcab04;stroke-width:10;fill:#ededed" transform="translate(0,9.1602)" cy="240"
            cx="650" r="20"/>
    <circle id="circle5193" style="stroke:#fcab04;stroke-width:10;fill:#ededed" transform="translate(0,9.1602)" cy="300"
            cx="650" r="20"/>
    <path id="path3930" style="stroke:#6495ed;stroke-linecap:round;stroke-width:20;fill:none"
          d="m182.84 188.91h144.99c41.43 0 39.11 53.45-3.45 55.24-66.77 2.81-58.69 27.61-58.69 55.23v317.6c0 31.07-12.65 35.67-28.76 35.67s-20.75 1.27-50.64 0c-54.08-2.3-48.41 38.81-10.39 38.81h43.77c24.16 0 26.05 10.35 26.05 26.05v105.45c0 24.16-18 33.37-37.56 33.37h-57.54"/>
    <circle id="circle5196" style="stroke:#6495ed;stroke-width:10;fill:#ededed" transform="translate(0,9.1602)" cy="355"
            cx="265" r="20"/>
    <circle id="circle5198" style="stroke:#6495ed;stroke-width:10;fill:#ededed" transform="translate(0,9.1602)" cy="436"
            cx="265" r="20"/>
    <circle id="circle5200" style="stroke:#6495ed;stroke-width:10;fill:#ededed" transform="translate(0,9.1602)" cy="510"
            cx="265" r="20"/>
    <circle id="circle5202" style="stroke:#6495ed;stroke-width:10;fill:#ededed" transform="translate(0,9.1602)" cy="590"
            cx="265" r="20"/>
    <circle id="circle5204" style="stroke:#6495ed;stroke-width:10;fill:#ededed" transform="translate(0,9.1602)" cy="660"
            cx="150" r="20"/>
    <circle id="circle5206" style="stroke:#6495ed;stroke-width:10;fill:#ededed" transform="translate(0,9.1602)" cy="720"
            cx="245" r="20"/>
    <circle id="circle5208" style="stroke:#6495ed;stroke-width:10;fill:#ededed" transform="translate(0,9.1602)" cy="790"
            cx="245" r="20"/>
    <path id="path4490" style="stroke:#ff6347;stroke-width:20;stroke-linecap:round;fill:none"
          d="m418.74 196.17v108.97c0 20.71-1.15 30.49 30.49 30.49 31.65 0 23.5 29.59 23.5 61.69v302.67h33.46c17.26 0 16.91 13.69 16.91 29.28 0 15.6 9.84 25.24 25.24 25.24 15.39 0 40.67-3.23 40.67 23.48v144.09"/>
    <circle id="circle5211" style="stroke:#ff6347;stroke-width:10;fill:#ededed" transform="translate(0,33.16)" cy="405"
            cx="472" r="20"/>
    <circle id="circle5213" style="stroke:#ff6347;stroke-width:10;fill:#ededed" transform="translate(0,33.16)" cy="465"
            cx="472" r="20"/>
    <circle id="circle5215" style="stroke:#ff6347;stroke-width:10;fill:#ededed" transform="translate(0,49.16)" cy="600"
            cx="472" r="20"/>
    <circle id="circle5217" style="stroke:#ff6347;stroke-width:10;fill:#ededed" transform="translate(4,139.16)" cy="730"
            cx="585" r="20"/>
    <circle id="circle5219" style="stroke:#ff6347;stroke-width:15;fill:#6495ed" transform="translate(0,-12.84)" cy="280"
            cx="416" r="20"/>
    <circle id="circle5221" style="stroke:#ff6347;stroke-width:15;fill:#da70d6" transform="translate(2,29.16)" cy="350"
            cx="467" r="20"/>
    <circle id="circle5223" style="stroke:#ff6347;stroke-width:15;fill:#edca34" transform="translate(6,15.16)" cy="540"
            cx="467" r="20"/>
    <polygon id="polygon9" style="fill:#e44d26"
             points="404.32 470.82 255.78 512 107.64 470.88 74.633 100.62 437.37 100.62"
             transform="matrix(.33758 0 0 .33758 331.54 9.1602)"/>
    <polygon id="polygon11" style="fill:#f16529" points="256 480.52 376.03 447.25 404.27 130.89 256 130.89"
             transform="matrix(.33758 0 0 .33758 331.54 9.1602)"/>
    <g id="g13" transform="matrix(.33758 0 0 .33758 331.54 9.1602)">
        <polygon id="polygon15" style="fill:#ebebeb"
                 points="154.38 313.63 256 313.63 256 268.22 195.91 268.22 191.76 221.72 256 221.72 256 176.31 255.84 176.31 142.13 176.31 143.22 188.49"/>
        <polygon id="polygon17" style="fill:#ebebeb"
                 points="255.8 386.21 205.23 372.55 201.99 336.33 177.42 336.33 156.41 336.33 162.77 407.63 255.79 433.46 256 433.4 256 386.15"/>
    </g>
    <g id="g29" transform="matrix(.33758 0 0 .33758 331.54 9.1602)">
        <polygon id="polygon31" style="fill:#ffffff"
                 points="349.16 268.22 255.84 268.22 255.84 313.63 311.76 313.63 306.49 372.52 255.84 386.19 255.84 433.44 348.94 407.63 349.62 399.96 360.29 280.41 361.4 268.22"/>
        <polygon id="polygon33" style="fill:#ffffff"
                 points="368.51 188.49 369.6 176.31 255.84 176.31 255.84 204.51 255.84 221.6 255.84 221.72 365.38 221.72 365.38 221.72 365.53 221.72 366.44 211.51"/>
    </g>
    <metadata>
        <rdf:RDF>
            <cc:Work>
                <dc:format>image/svg+xml</dc:format>
                <dc:type rdf:resource="http://purl.org/dc/dcmitype/StillImage"/>
                <cc:license rdf:resource="http://creativecommons.org/licenses/publicdomain/"/>
                <dc:publisher>
                    <cc:Agent rdf:about="http://openclipart.org/">
                        <dc:title>Openclipart</dc:title>
                    </cc:Agent>
                </dc:publisher>
            </cc:Work>
            <cc:License rdf:about="http://creativecommons.org/licenses/publicdomain/">
                <cc:permits rdf:resource="http://creativecommons.org/ns#Reproduction"/>
                <cc:permits rdf:resource="http://creativecommons.org/ns#Distribution"/>
                <cc:permits rdf:resource="http://creativecommons.org/ns#DerivativeWorks"/>
            </cc:License>
        </rdf:RDF>
    </metadata>
</svg>
