<?xml version="1.0" encoding="UTF-8" standalone="no"?>
<svg
        xmlns:dc="http://purl.org/dc/elements/1.1/"
        xmlns:cc="http://creativecommons.org/ns#"
        xmlns:rdf="http://www.w3.org/1999/02/22-rdf-syntax-ns#"
        xmlns:svg="http://www.w3.org/2000/svg"
        xmlns="http://www.w3.org/2000/svg"
        xmlns:sodipodi="http://sodipodi.sourceforge.net/DTD/sodipodi-0.dtd"
        xmlns:inkscape="http://www.inkscape.org/namespaces/inkscape"
        width="223.20302"
        height="199.09055"
        id="svg2"
        version="1.1"
        inkscape:version="0.91 r13725"
        sodipodi:docname="paper-clip.svg">
    <metadata
            id="metadata16">
        <rdf:RDF>
            <cc:Work
                    rdf:about="">
                <dc:format>image/svg+xml</dc:format>
                <dc:type
                        rdf:resource="http://purl.org/dc/dcmitype/StillImage"/>
                <dc:title></dc:title>
            </cc:Work>
        </rdf:RDF>
    </metadata>
    <sodipodi:namedview
            pagecolor="#ffffff"
            bordercolor="#666666"
            borderopacity="1"
            objecttolerance="10"
            gridtolerance="10"
            guidetolerance="10"
            inkscape:pageopacity="0"
            inkscape:pageshadow="2"
            inkscape:window-width="1680"
            inkscape:window-height="997"
            id="namedview14"
            showgrid="true"
            showguides="true"
            inkscape:guide-bbox="true"
            inkscape:zoom="2.8284271"
            inkscape:cx="61.062198"
            inkscape:cy="80.243035"
            inkscape:window-x="1912"
            inkscape:window-y="-8"
            inkscape:window-maximized="1"
            inkscape:current-layer="svg2"
            fit-margin-top="0"
            fit-margin-left="0"
            fit-margin-right="0"
            fit-margin-bottom="0">
        <inkscape:grid
                type="xygrid"
                id="grid4144"
                originx="-24.99967"
                originy="-3.2020207"/>
        <sodipodi:guide
                position="90.00033,126.79798"
                orientation="0,1"
                id="guide4146"/>
    </sodipodi:namedview>
    <defs
            id="defs4">
        <filter
                id="filter4313">
            <feGaussianBlur
                    id="feGaussianBlur4315"
                    stdDeviation="1.054277"/>
        </filter>
    </defs>
    <path
            id="path2321"
            d="M 149.76764,12.622482 21.725118,128.52755 c -11.466006,10.39981 -19.9666786,21.86753 -17.8841826,37.14632 1.65072,20.32324 0.476221,23.02435 25.6338546,28.3592 22.086876,4.17094 27.905212,0.0451 44.200686,-14.8372 C 113.32424,145.66514 149.87966,111.78556 187.7993,78.058862 212.26339,54.194836 228.20323,42.816192 214.78951,27.283146 L 196.08479,9.9169219 C 184.35414,-2.7142704 173.65152,5.3880615 163.03917,15.320334 l -59.62763,54.481871 m 76.15388,1.048174 15.87256,-13.673744"
            inkscape:connector-curvature="0"
            style="fill:none;stroke:#000000;stroke-width:7.0630002;stroke-linecap:round;stroke-linejoin:round"
            sodipodi:nodetypes="cccccccccccc"/>
    <g
            id="g5303"
            transform="matrix(0.99031929,-0.13216847,0.13228753,0.99121138,-36.240758,36.544313)"
            style="fill:none;stroke:#ffffff;stroke-linecap:round;stroke-linejoin:round">
        <path
                id="path3292"
                d="M 185.96,0.8952 43.71,98.8432 c -12.741,8.7916 -22.684,19.034 -22.641,34.454 -1.0523,20.363 -2.5738,22.885 21.657,31.501 21.34,7.0561 27.654,3.7362 45.775,-8.8596 43.736,-27.991 84.452,-56.737 126.5,-85.151 27.406,-20.418 44.711,-29.588 33.47,-46.759 L 232.228,4.3406 c -9.9566,-14.072 -21.637,-7.4567 -33.47,0.9844 L 130.43418,53.186521 M 206.69514,64.097707 225.335,51.0994"
                inkscape:connector-curvature="0"
                style="stroke-width:3;filter:url(#filter4313)"
                sodipodi:nodetypes="cccccccccccc"/>
        <path
                id="path2319"
                d="M 185.96,0.8952 43.71,98.8432 c -12.741,8.7916 -22.684,19.034 -22.641,34.454 -1.0523,20.363 -2.5738,22.885 21.657,31.501 21.341,7.0561 27.654,3.7362 45.775,-8.8596 43.736,-27.991 84.452,-56.737 126.5,-85.151 27.406,-20.418 44.711,-29.588 33.47,-46.759 L 232.228,4.3406 c -9.9566,-14.072 -21.637,-7.4567 -33.47,0.9844 L 130.03661,53.490197 M 206.29756,64.40138 225.335,51.0994"
                inkscape:connector-curvature="0"
                style="stroke-width:0.86900002"
                sodipodi:nodetypes="cccccccccccc"/>
    </g>
</svg>
