<?xml version="1.0" encoding="UTF-8" standalone="no"?>
<!-- Created with Inkscape (http://www.inkscape.org/) -->

<svg
        xmlns:dc="http://purl.org/dc/elements/1.1/"
        xmlns:cc="http://creativecommons.org/ns#"
        xmlns:rdf="http://www.w3.org/1999/02/22-rdf-syntax-ns#"
        xmlns:svg="http://www.w3.org/2000/svg"
        xmlns="http://www.w3.org/2000/svg"
        xmlns:sodipodi="http://sodipodi.sourceforge.net/DTD/sodipodi-0.dtd"
        xmlns:inkscape="http://www.inkscape.org/namespaces/inkscape"
        width="225.77783mm"
        height="225.77783mm"
        viewBox="0 0 800.00019 800.00019"
        id="svg4262"
        version="1.1"
        inkscape:version="0.91 r13725"
        sodipodi:docname="point-border1.svg">
    <defs
            id="defs4264"/>
    <sodipodi:namedview
            id="base"
            pagecolor="#ffffff"
            bordercolor="#666666"
            borderopacity="1.0"
            inkscape:pageopacity="0.0"
            inkscape:pageshadow="2"
            inkscape:zoom="1.01"
            inkscape:cx="403.31487"
            inkscape:cy="377.14292"
            inkscape:document-units="px"
            inkscape:current-layer="layer1"
            showgrid="false"
            fit-margin-top="0"
            fit-margin-left="0"
            fit-margin-right="0"
            fit-margin-bottom="0"
            inkscape:window-width="1680"
            inkscape:window-height="997"
            inkscape:window-x="1912"
            inkscape:window-y="-8"
            inkscape:window-maximized="1"/>
    <metadata
            id="metadata4267">
        <rdf:RDF>
            <cc:Work
                    rdf:about="">
                <dc:format>image/svg+xml</dc:format>
                <dc:type
                        rdf:resource="http://purl.org/dc/dcmitype/StillImage"/>
                <dc:title></dc:title>
            </cc:Work>
        </rdf:RDF>
    </metadata>
    <g
            inkscape:label="Layer 1"
            inkscape:groupmode="layer"
            id="layer1"
            transform="translate(1491.4287,-1595.2193)">
        <g
                id="g4865"
                transform="translate(708.57142,2440)">
            <path
                    d="m -2187.1546,-831.93525 c 0.8379,2.9235 1.8614,5.7911 3.0378,8.5733 6.6071,15.5745 20.2541,28.3557 36.8284,32.489 0.5083,0.1187 1.0184,0.2299 1.5301,0.3339 -0.1039,-0.5117 -0.2152,-1.0218 -0.3339,-1.5301 -4.1333,-16.5743 -16.9145,-30.2214 -32.489,-36.8284 -2.7822,-1.1763 -5.6499,-2.1997 -8.5734,-3.0377 z m 57.0585,57.0585 c -3.115,0.0504 -6.2416,-0.042 -9.3277,-0.0299 -12.9874,0.2164 -25.4593,-5.6073 -35.2205,-13.8842 -15.863,-13.9658 -24.6658,-34.9918 -25.3558,-55.9899 20.998,0.6899 42.0241,9.4928 55.9899,25.3558 8.2769,9.7611 14.1006,22.2331 13.8841,35.2205 -0.012,3.0861 0.08,6.2127 0.03,9.3277 z"
                    id="path9"
                    inkscape:connector-curvature="0"/>
            <path
                    d="m -1984.2597,-629.04035 c 2.7921,8.3288 6.7908,16.2124 10.3834,24.2164 7.3801,14.9458 15.0179,29.8915 24.8203,43.4148 5.8649,-1.1339 12.07,-2.4944 17.9143,-0.402 11.0392,3.8241 19.1718,12.5854 27.6342,20.2231 5.9577,5.3393 11.2969,11.7917 18.8007,15.0385 1.181,0.5586 2.5117,0.8747 3.8362,0.8981 -0.023,-1.3245 -0.3395,-2.6553 -0.8981,-3.8362 -3.2469,-7.5038 -9.6993,-12.843 -15.0385,-18.8007 -7.6378,-8.4624 -16.3991,-16.5949 -20.2231,-27.6342 -2.0924,-5.8443 -0.7318,-12.0494 0.402,-17.9143 -13.5233,-9.8023 -28.4691,-17.4401 -43.4148,-24.8203 -8.0042,-3.5924 -15.8879,-7.5912 -24.2166,-10.3832 z m 124.5837,124.5837 c -1.5935,1.7019 -3.394,3.2082 -5.3849,4.4592 -6.9369,4.0302 -15.9868,2.5872 -22.5526,-1.5461 -9.1118,-5.4011 -14.4407,-16.0178 -24.7894,-19.481 2.7727,6.4525 7.0091,12.1112 10.8846,17.9349 11.8432,17.2649 25.0367,33.5713 36.5501,51.063 12.5132,18.5739 23.4597,38.457 29.9018,59.9995 4.0508,14.3376 6.906,29.2112 6.4112,44.1673 0.4432,12.2349 -1.6492,24.4801 -5.2155,36.1481 -4.9166,14.7912 -13.5543,29.0463 -27.0261,37.4366 -6.0298,3.4324 -12.6884,6.4524 -19.7593,6.4215 -5.1537,0.1237 -10.328,0.2474 -15.4714,-0.2164 -12.9255,-2.0822 -24.2224,-11.9257 -28.1083,-24.4286 -1.876,-4.8444 -1.6286,-10.1321 -1.4534,-15.224 0.7937,-10.0807 8.0913,-19.8831 18.2751,-21.9548 5.834,-0.6494 11.802,-0.639 17.6154,0.268 -2.1027,2.144 -5.1537,2.3913 -7.844,3.319 -9.7096,2.7314 -16.9145,12.472 -16.6465,22.563 -0.3814,8.1223 4.3085,15.9971 11.266,20.0273 9.9879,5.4114 23.3875,3.2571 31.2418,-4.9269 6.3185,-6.4731 9.3385,-15.5436 10.0703,-24.408 0.8452,-10.864 -3.4324,-21.4085 -9.5344,-30.1904 -9.0808,-13.4718 -21.996,-24.243 -29.0566,-39.0858 -5.2671,-10.9465 -4.659,-24.1915 0.6288,-35.0143 3.3087,-5.2877 9.9776,-6.7719 15.6673,-7.9985 6.9266,-1.6286 13.8944,0.3711 20.8416,0.5772 -2.8964,-6.4421 -6.8957,-12.3071 -10.2147,-18.5225 -11.534,-20.1922 -23.1505,-40.9823 -40.3226,-57 3.0304,5.597 5.8546,11.6783 5.7618,18.1823 0.6906,13.8119 -7.3698,26.8302 -18.3575,34.6844 -6.2051,4.1126 -13.7913,6.9678 -21.3158,5.6588 -8.4521,-1.6904 -15.8734,-8.0294 -18.7698,-16.1517 6.1844,-0.2164 12.4926,0.8555 18.5843,-0.5875 4.8239,-1.0823 9.4004,-4.5146 10.7403,-9.4313 0.9586,-5.7309 0.082,-11.6268 -1.8347,-17.0794 -4.2879,-12.3998 -10.8743,-23.8411 -17.3371,-35.2101 -1.8347,-3.3602 -4.1436,-6.5349 -5.298,-10.2249 0.3402,-5.2259 2.2677,-10.2971 1.8657,-15.5951 -1.0307,-12.204 -5.2362,-24.0266 -11.3279,-34.602 -6.3494,-11.4103 -13.8429,-22.1506 -19.8727,-33.7361 -3.1231,-5.8546 -5.2671,-12.1731 -8.5758,-17.9349 -0.4123,17.8628 -0.6597,35.7976 0.804,53.6192 0.1856,13.6573 0.041,27.325 0.082,40.9926 0.093,6.2154 -1.34,12.3277 -1.2781,18.5431 0.072,3.3396 -0.9483,6.5452 -2.381,9.524 -3.288,-1.34 -6.875,-3.1644 -7.5966,-7.0297 -1.1853,-7.679 0.1856,-15.4302 0.67,-23.0989 -0.1443,-20.9756 0.2783,-41.9306 0.1752,-62.9062 -0.072,-5.8031 0.268,-11.6268 -0.4226,-17.4092 -0.8143,-5.1228 -0.371,-10.4208 -2.1439,-15.3683 -1.1338,2.515 -2.144,5.0712 -2.8449,7.7306 -6.5246,24.6038 -20.0788,46.5586 -34.5505,67.225 -1.9275,2.9067 -4.3806,5.5557 -5.6588,8.8335 -0.6288,4.2879 2.1955,8.0398 3.1128,12.0803 2.4429,7.174 0.093,14.7911 -2.6078,21.5219 -4.2879,9.9364 -10.7403,18.8214 -14.4407,29.0154 -1.8966,4.8651 -1.4946,10.1837 -1.3812,15.2859 0.021,5.298 4.2982,10.6991 9.7817,10.9052 7.3595,0.7009 14.2242,-2.6284 21.4601,-3.2881 -0.9586,8.3902 -6.1123,16.5537 -14.1315,19.749 -9.6065,3.9374 -20.6045,1.4946 -29.4071,-3.3396 -8.7098,-4.4013 -16.3166,-11.7608 -19.4707,-21.1405 -1.8553,-5.1331 -0.7937,-10.6373 -0.9998,-15.9456 -13.2141,11.668 -22.666,26.8302 -32.0973,41.5492 -3.4839,6.2979 -8.0707,12.1422 -9.9982,19.1718 11.5752,2.9789 25.1192,5.1743 32.3447,15.8528 5.6485,8.4315 2.1543,18.8419 -1.4121,27.3456 -9.3385,20.6354 -24.5317,38.2611 -32.0561,59.783 -2.8552,7.3492 -3.1231,15.5024 -1.9275,23.2123 3.3911,9.9261 11.8845,17.502 21.3054,21.6662 5.4114,2.144 11.5031,3.9581 17.2752,2.144 7.4213,-1.845 13.2656,-7.8439 16.2857,-14.6984 2.1027,-6.1329 -1.1441,-12.5544 -5.4114,-16.8939 -5.8443,-5.8031 -13.5646,-9.0602 -20.0273,-14.049 0.1031,-0.8762 0.2062,-1.7626 0.3092,-2.649 7.6172,-1.7626 16.1517,-2.8448 23.3154,1.0308 8.7201,4.7723 13.2347,15.0591 12.6266,24.7481 0.4844,9.256 -3.2365,18.3884 -9.4004,25.2017 -6.7101,7.0709 -16.5537,10.73 -26.2324,10.3796 -18.038,0.3298 -35.4472,-8.9881 -46.4968,-23.0062 -10.194,-12.4823 -16.3888,-28.0362 -18.172,-44.0127 -1.1854,-8.6789 -2.3707,-17.5123 -1.072,-26.2633 1.8759,-25.0264 10.864,-49.1355 23.9647,-70.4203 14.6571,-24.9131 34.1279,-46.4762 50.2487,-70.3894 1.8038,-2.5253 3.6385,-5.2362 3.5561,-8.483 -6.4318,3.3087 -10.5548,10.0188 -17.6154,12.2349 -10.6166,2.546 -22.0785,-1.443 -29.6029,-9.1839 -6.9575,-6.3391 -10.9156,-15.5333 -11.6886,-24.8203 0.5463,-7.2358 3.3087,-14.5747 8.5964,-19.6974 1.4843,-1.3915 3.0716,-3.453 5.3599,-2.4532 2.7933,8.5345 2.247,18.3884 8.1635,25.6861 6.8029,0.1134 14.2655,1.2988 20.3881,-2.4428 10.0188,-5.3805 15.2756,-15.925 22.9134,-23.8411 5.968,-6.5246 14.8942,-10.2353 23.7277,-9.7611 3.2262,-0.0309 6.3494,0.8761 9.5447,1.0411 2.0718,0.3195 3.2984,-1.7007 4.6177,-2.9273 14.3376,-16.5949 25.7583,-35.6636 34.0557,-55.9487 1.979,-5.0094 4.5971,-10.0291 4.1642,-15.5951 -4.1436,4.1126 -6.8957,9.3179 -10.596,13.781 -18.6461,22.9134 -45.5588,41.1266 -75.6874,43.0437 -15.4096,0.567 -31.0975,-4.494 -43.0232,-14.3066 -8.3078,-7.8955 -15.6776,-17.8937 -16.9351,-29.6029 -2.4532,-21.8414 4.6899,-43.1056 5.8649,-64.7615 0.4948,-10.5445 -0.5463,-21.9548 -7.0709,-30.6646 -4.6383,-5.9783 -13.3481,-0.4329 -19.0069,-4.7207 0.4535,-5.597 2.2882,-11.4103 6.7926,-15.0798 8.8335,-7.0503 22.398,-7.2977 31.3861,-0.3814 5.7,4.6177 8.0501,11.9978 9.1221,18.9862 1.0926,9.2457 -0.6184,18.5637 -3.1438,27.4383 -1.7419,6.2773 -4.9785,11.9669 -7.2152,18.0586 1.7213,-0.567 3.6797,-0.8349 4.9785,-2.2573 7.8233,-7.0709 12.1731,-17.4711 21.1611,-23.336 2.4119,-1.7626 5.2156,-2.8757 8.1532,-3.3705 0.052,2.6696 0.4329,5.3908 -0.1752,8.0089 -4.5456,9.689 -16.0796,13.2347 -21.1405,22.5011 4.5765,-0.5463 8.9571,-2.3501 13.6161,-2.2883 19.0996,-0.9792 34.9009,18.2441 33.6743,36.6223 0.3814,8.8025 -5.2156,17.368 -13.4202,20.5633 -5.4526,2.0718 -11.7505,3.8344 -17.4195,1.5874 7.7615,-7.2667 13.9769,-17.4196 13.245,-28.3969 -0.1134,-6.1329 -4.6177,-11.5856 -10.2353,-13.7295 -7.0399,-2.8861 -15.6363,-3.4118 -22.3877,0.4947 -7.3389,4.0302 -10.9568,12.4101 -11.9566,20.3881 -1.309,5.7928 0,11.7299 1.4843,17.3474 3.0716,10.7816 12.1215,19.0893 22.3362,23.1402 10.5651,4.1745 22.3362,5.6691 33.5094,3.3087 16.4919,-2.5768 32.2931,-9.6272 44.9919,-20.4808 11.2145,-9.5035 19.4089,-22.5114 22.7485,-36.8593 -6.5349,2.4119 -13.142,5.2671 -20.2541,5.0609 -6.0401,0.3711 -12.9049,-0.4122 -17.0794,-5.298 -3.0098,-2.9892 -2.0512,-7.4832 -2.1336,-11.2866 6.4421,-1.3812 13.2553,-1.1957 19.3676,-3.9168 6.871,-2.9314 12.6635,-7.7568 17.2934,-13.5572 5.8004,-4.63 10.6258,-10.4224 13.5572,-17.2934 2.7211,-6.1123 2.5356,-12.9255 3.9168,-19.3676 3.8034,0.0825 8.2975,-0.8761 11.2866,2.1336 4.8857,4.1745 5.6691,11.0392 5.298,17.0794 0.2062,7.1121 -2.649,13.7192 -5.0609,20.2541 14.3479,-3.3396 27.3559,-11.534 36.8593,-22.7485 10.8537,-12.6987 17.904,-28.5 20.4808,-44.9919 2.3604,-11.1732 0.8658,-22.9443 -3.3087,-33.5094 -4.0508,-10.2147 -12.3586,-19.2646 -23.1402,-22.3362 -5.6175,-1.4843 -11.5546,-2.7933 -17.3474,-1.4843 -7.978,0.9998 -16.3579,4.6177 -20.3881,11.9566 -3.9065,6.7514 -3.3808,15.3478 -0.4947,22.3877 2.1439,5.6176 7.5966,10.1219 13.7295,10.2353 10.9774,0.7318 21.1302,-5.4836 28.3969,-13.245 2.247,5.6691 0.4844,11.9669 -1.5874,17.4195 -3.1953,8.2047 -11.7607,13.8016 -20.5633,13.4202 -18.3781,1.2266 -37.6015,-14.5747 -36.6223,-33.6743 -0.062,-4.6589 1.742,-9.0396 2.2883,-13.6161 -9.2664,5.0609 -12.8121,16.5949 -22.5011,21.1405 -2.6181,0.6081 -5.3392,0.2268 -8.0089,0.1752 0.4948,-2.9376 1.608,-5.7412 3.3705,-8.1532 5.8649,-8.9881 16.2651,-13.3378 23.336,-21.1611 1.4224,-1.2987 1.6904,-3.2571 2.2573,-4.9785 -6.0917,2.2367 -11.7814,5.4732 -18.0586,7.2152 -8.8747,2.5253 -18.1926,4.2364 -27.4383,3.1438 -6.9885,-1.072 -14.3685,-3.4221 -18.9862,-9.1221 -6.9163,-8.9881 -6.6689,-22.5526 0.3814,-31.3861 3.6694,-4.5043 9.4828,-6.3391 15.0798,-6.7926 4.2879,5.6588 -1.2575,14.3685 4.7207,19.0069 8.7098,6.5246 20.1201,7.5657 30.6646,7.0709 21.6559,-1.175 42.9201,-8.3181 64.7615,-5.8649 11.7092,1.2575 21.7074,8.6273 29.6029,16.9351 9.8126,11.9257 14.8736,27.6136 14.3066,43.0232 -1.9172,30.1286 -20.1304,57.0413 -43.0437,75.6874 -4.4631,3.7004 -9.6684,6.4524 -13.781,10.596 5.566,0.4329 10.5857,-2.1852 15.5951,-4.1642 20.2851,-8.2975 39.3538,-19.7181 55.9487,-34.0557 1.2266,-1.3193 3.2469,-2.5459 2.9273,-4.6177 -0.1649,-3.1953 -1.072,-6.3185 -1.0411,-9.5447 -0.4742,-8.8334 3.2365,-17.7597 9.7611,-23.7277 7.9161,-7.6378 18.4606,-12.8946 23.8411,-22.9134 3.7416,-6.1226 2.5562,-13.5852 2.4428,-20.3881 -7.2976,-5.9165 -17.1515,-5.3702 -25.6861,-8.1635 -0.9998,-2.2882 1.0617,-3.8756 2.4532,-5.3599 5.1228,-5.2877 12.4617,-8.0501 19.6974,-8.5964 9.287,0.7731 18.4812,4.7311 24.8203,11.6886 7.7408,7.5244 11.7298,18.9863 9.1839,29.6029 -2.2161,7.0606 -8.9262,11.1835 -12.2349,17.6154 3.2468,0.0825 5.9577,-1.7523 8.483,-3.5561 23.9132,-16.1208 45.4763,-35.5915 70.3894,-50.2487 21.2848,-13.1007 45.3938,-22.0888 70.4203,-23.9647 8.751,-1.2987 17.5844,-0.1134 26.2633,1.072 15.9765,1.7832 31.5304,7.9779 44.0127,18.172 14.0181,11.0496 23.3359,28.4588 23.0062,46.4968 0.3504,9.6787 -3.3087,19.5222 -10.3796,26.2324 -6.8132,6.1638 -15.9456,9.8848 -25.2017,9.4004 -9.689,0.6081 -19.9758,-3.9065 -24.7481,-12.6266 -3.8756,-7.1637 -2.7933,-15.6982 -1.0308,-23.3154 0.8865,-0.1031 1.7729,-0.2061 2.649,-0.3092 4.9888,6.4628 8.2459,14.183 14.049,20.0273 4.3394,4.2673 10.7609,7.5141 16.8939,5.4114 6.8544,-3.0201 12.8533,-8.8644 14.6984,-16.2857 1.8141,-5.7722 0,-11.8638 -2.144,-17.2752 -4.1642,-9.421 -11.7401,-17.9143 -21.6662,-21.3054 -7.7099,-1.1957 -15.8631,-0.9277 -23.2123,1.9275 -21.5219,7.5244 -39.1476,22.7175 -59.783,32.0561 -8.5036,3.5664 -18.9141,7.0606 -27.3456,1.4121 -10.6785,-7.2255 -12.874,-20.7695 -15.8528,-32.3447 -7.0297,1.9275 -12.874,6.5143 -19.1718,9.9982 -14.719,9.4313 -29.8812,18.8832 -41.5492,32.0973 5.3083,0.2062 10.8125,-0.8555 15.9456,0.9998 9.3798,3.1541 16.7392,10.7609 21.1405,19.4707 4.8342,8.8025 7.277,19.8006 3.3396,29.4071 -3.1953,8.0192 -11.3588,13.1729 -19.749,14.1315 0.6597,-7.2358 3.989,-14.1005 3.2881,-21.4601 -0.2061,-5.4835 -5.6072,-9.7611 -10.9052,-9.7817 -5.1022,-0.1134 -10.4208,-0.5154 -15.2859,1.3812 -10.194,3.7004 -19.079,10.1528 -29.0154,14.4407 -6.7307,2.7005 -14.3479,5.0506 -21.5219,2.6078 -4.0405,-0.9174 -7.7924,-3.7416 -12.0803,-3.1128 -3.2777,1.2781 -5.9268,3.7313 -8.8335,5.6588 -20.6664,14.4716 -42.6212,28.0259 -67.225,34.5505 -2.6593,0.7009 -5.2155,1.711 -7.7306,2.8449 4.9476,1.7729 10.2456,1.3296 15.3683,2.1439 5.7825,0.6906 11.6062,0.3504 17.4092,0.4226 20.9756,0.1031 41.9306,-0.3195 62.9062,-0.1752 7.6687,-0.4845 15.4199,-1.8554 23.0989,-0.67 3.8653,0.7215 5.6897,4.3085 7.0297,7.5966 -2.9789,1.4328 -6.1844,2.4532 -9.524,2.381 -6.2154,-0.0619 -12.3277,1.3709 -18.5431,1.2781 -13.6676,-0.0412 -27.3352,0.1031 -40.9926,-0.0825 -17.8216,-1.4636 -35.7564,-1.2163 -53.6192,-0.804 5.7619,3.3087 12.0803,5.4526 17.9349,8.5758 11.5855,6.0298 22.3258,13.5233 33.7361,19.8727 10.5754,6.0917 22.398,10.2971 34.602,11.3279 5.298,0.402 10.3693,-1.5255 15.5951,-1.8657 3.69,1.1545 6.8647,3.4633 10.2249,5.298 11.3691,6.4627 22.8103,13.0492 35.2101,17.3371 5.4526,1.9172 11.3485,2.7933 17.0794,1.8347 4.9166,-1.34 8.349,-5.9165 9.4313,-10.7403 1.443,-6.0917 0.3711,-12.3998 0.5875,-18.5843 8.1223,2.8964 14.4613,10.3177 16.1517,18.7698 1.3091,7.5244 -1.5461,15.1107 -5.6588,21.3158 -7.8542,10.9877 -20.8725,19.0481 -34.6844,18.3575 -6.504,0.0927 -12.5854,-2.7315 -18.1823,-5.7618 16.0177,17.1721 36.8078,28.7886 57,40.3226 6.2154,3.319 12.0803,7.3183 18.5225,10.2147 -0.2062,-6.9472 -2.2058,-13.915 -0.5772,-20.8416 1.2266,-5.6897 2.7109,-12.3586 7.9985,-15.6673 10.8228,-5.2877 24.0678,-5.8958 35.0143,-0.6288 14.8427,7.0606 25.614,19.9758 39.0858,29.0566 8.7819,6.102 19.3264,10.3795 30.1904,9.5344 8.8644,-0.7318 17.9349,-3.7519 24.408,-10.0703 8.1841,-7.8542 10.3383,-21.2539 4.9269,-31.2418 -4.0302,-6.9575 -11.905,-11.6474 -20.0273,-11.266 -10.091,-0.268 -19.8315,6.9369 -22.563,16.6465 -0.9277,2.6902 -1.175,5.7412 -3.319,7.844 -0.907,-5.8134 -0.9174,-11.7814 -0.268,-17.6154 2.0718,-10.1837 11.8741,-17.4814 21.9548,-18.2751 5.0919,-0.1752 10.3796,-0.4226 15.224,1.4534 12.5029,3.8859 22.3465,15.1828 24.4286,28.1083 0.4638,5.1434 0.3401,10.3177 0.2164,15.4714 0.031,7.0709 -2.9891,13.7295 -6.4215,19.7593 -8.3903,13.4718 -22.6454,22.1094 -37.4366,27.0261 -11.668,3.5664 -23.9132,5.6588 -36.1481,5.2155 -14.9561,0.4948 -29.8297,-2.3604 -44.1673,-6.4112 -21.5425,-6.4421 -41.4255,-17.3886 -59.9995,-29.9018 -17.4917,-11.5134 -33.798,-24.7069 -51.063,-36.5501 -5.8237,-3.8756 -11.4825,-8.1119 -17.9349,-10.8846 3.4633,10.3487 14.0799,15.6776 19.481,24.7894 4.1333,6.5658 5.5763,15.6157 1.5461,22.5526 -1.2498,1.9896 -2.7562,3.7901 -4.458,5.3837 z"
                    id="path17"
                    inkscape:connector-curvature="0"/>
            <path
                    d="m -2118.1184,-703.61025 c -1.4224,-7.1534 1.6904,-14.3273 6.4524,-19.5635 1.9687,-2.4944 5.6175,-1.3812 8.3799,-1.6389 4.9476,-0.4226 9.5137,2.7727 11.8123,6.9678 0.4845,4.3601 0.6597,8.8747 -0.1649,13.1935 -2.5872,5.0713 -7.5966,10.0497 -13.7707,9.2046 -5.2979,0.3195 -11.3175,-2.7625 -12.709,-8.1635 z"
                    id="path23"
                    inkscape:connector-curvature="0"/>
            <path
                    d="m -2058.8296,-762.89905 c -7.1534,-1.4224 -14.3273,1.6904 -19.5635,6.4524 -2.4944,1.9687 -1.3812,5.6175 -1.6389,8.3799 -0.4226,4.9476 2.7727,9.5137 6.9678,11.8123 4.3601,0.4845 8.8747,0.6597 13.1935,-0.1649 5.0713,-2.5872 10.0497,-7.5966 9.2046,-13.7707 0.3195,-5.2979 -2.7625,-11.3175 -8.1635,-12.709 z"
                    id="path31"
                    inkscape:connector-curvature="0"/>
            <path
                    d="m -2079.7589,-724.53955 c -4.0806,0.2087 -8.2979,0.5745 -11.7869,-1.8192 -5.7095,-3.2564 -8.193,-10.4855 -6.7122,-16.6799 6.1944,-1.4808 13.4236,1.0027 16.6799,6.7122 2.3937,3.489 2.0279,7.7063 1.8192,11.7869 z"
                    id="path43"
                    inkscape:connector-curvature="0"/>
            <path
                    d="m -2061.5719,-242.41515 c -0.8864,-1.0926 -1.8347,-2.4635 -1.2163,-3.9271 2.9479,-3.2778 6.5761,-5.8752 9.5962,-9.1014 14.2036,-14.5747 22.3465,-33.8599 27.7476,-53.2172 7.6584,-27.9125 10.2146,-56.8661 12.7915,-85.5928 1.5255,-19.6459 3.185,-39.2816 4.9579,-58.9275 0.268,-1.6904 0.5772,-3.3808 0.9071,-5.0815 3.8137,-0.0206 5.0609,4.0714 6.5246,6.8544 5.566,12.1215 3.4427,25.7273 3.7519,38.6116 -0.2886,13.3997 0.3195,26.8096 2.247,40.0856 3.7828,28.6649 10.8537,57.1546 23.5421,83.2427 5.7515,11.7711 12.7812,22.9958 21.5528,32.7673 1.5461,1.8244 3.4427,3.4736 4.3703,5.7206 0.1134,2.1646 -1.3709,3.8447 -2.4635,5.5351 -12.606,17.1824 -21.2951,36.8799 -28.2423,56.9175 -15.8425,46.3422 -21.7074,95.209698 -29.5513,143.314398 -0.6906,0.103 -2.0821,0.3195 -2.783,0.4329 -3.9271,-39.0135 -8.0295,-78.161098 -16.8423,-116.442898 -7.1225,-28.9434 -17.3371,-58.1546 -36.8903,-81.1917 m 31.6438,13.513 c 9.4725,23.4803 12.6884,48.8262 15.3787,73.8217 2.1233,17.6154 3.9683,35.2823 7.1533,52.7534 0.5257,2.896398 1.2678,5.813398 2.9995,8.256298 2.1027,-4.9888 2.3501,-10.461998 2.7212,-15.790998 2.8758,-21.2642 5.6382,-42.5903 10.4414,-63.5247 4.3291,-18.2029 12.8018,-35.0246 18.2957,-52.8564 2.8964,-8.7716 4.2982,-18.2441 2.6284,-27.3971 -3.824,-12.07 -13.0904,-21.4807 -17.1928,-33.4476 -5.6382,-16.2033 -7.442,-33.3651 -10.6991,-50.125 -1.4946,-6.6895 -2.5459,-13.5542 -5.2465,-19.9036 -2.0202,11.1526 -1.979,22.5939 -4.3394,33.7156 -4.659,27.5621 -13.5336,55.0519 -30.4481,77.6458 2.7211,5.6485 6.0504,10.998 8.3077,16.8526 z"
                    id="path47"
                    inkscape:connector-curvature="0"/>
            <path
                    d="m -1597.6345,-706.35255 c -1.0926,-0.8864 -2.4635,-1.8347 -3.9271,-1.2163 -3.2778,2.9479 -5.8752,6.5761 -9.1014,9.5962 -14.5747,14.2036 -33.8599,22.3465 -53.2172,27.7476 -27.9125,7.6584 -56.8661,10.2146 -85.5928,12.7915 -19.6459,1.5255 -39.2816,3.185 -58.9275,4.9579 -1.6904,0.268 -3.3808,0.5772 -5.0815,0.9071 -0.021,3.8137 4.0714,5.0609 6.8544,6.5246 12.1215,5.566 25.7273,3.4427 38.6116,3.7519 13.3997,-0.2886 26.8096,0.3195 40.0856,2.247 28.6649,3.7828 57.1546,10.8537 83.2427,23.5421 11.7711,5.7515 22.9958,12.7812 32.7673,21.5528 1.8244,1.5461 3.4736,3.4427 5.7206,4.3703 2.1646,0.1134 3.8447,-1.3709 5.5351,-2.4635 17.1824,-12.606 36.8799,-21.2951 56.9175,-28.2423 46.3422,-15.8425 95.2097,-21.7074 143.3144,-29.5513 0.103,-0.6906 0.3195,-2.0821 0.4329,-2.783 -39.0135,-3.9271 -78.1611,-8.0295 -116.4429,-16.8423 -28.9434,-7.1225 -58.1546,-17.3371 -81.1917,-36.8903 m 13.513,31.6438 c 23.4803,9.4725 48.8262,12.6884 73.8217,15.3787 17.6154,2.1233 35.2823,3.9683 52.7534,7.1533 2.8964,0.5257 5.8134,1.2678 8.2563,2.9995 -4.9888,2.1027 -10.462,2.3501 -15.791,2.7212 -21.2642,2.8758 -42.5903,5.6382 -63.5247,10.4414 -18.2029,4.3291 -35.0246,12.8018 -52.8564,18.2957 -8.7716,2.8964 -18.2441,4.2982 -27.3971,2.6284 -12.07,-3.824 -21.4807,-13.0904 -33.4476,-17.1928 -16.2033,-5.6382 -33.3651,-7.442 -50.125,-10.6991 -6.6895,-1.4946 -13.5542,-2.5459 -19.9036,-5.2465 11.1526,-2.0202 22.5939,-1.979 33.7156,-4.3394 27.5621,-4.659 55.0519,-13.5336 77.6458,-30.4481 5.6485,2.7211 10.998,6.0504 16.8526,8.3077 z"
                    id="path55"
                    inkscape:connector-curvature="0"/>
            <path
                    d="m -2025.2176,-475.96065 c -1.2472,-7.5347 0.6803,-16.028 6.6689,-21.1302 8.8953,-8.1532 24.5832,-8.4933 32.9425,0.6082 2.6799,2.783 4.628,6.4834 4.5868,10.4208 0.082,6.3391 0.6287,13.5749 -3.5252,18.8419 -6.1432,4.8651 -14.4716,4.7002 -21.9033,4.6177 -5.298,-0.0927 -11.5855,0.536 -15.6261,-3.6076 -1.6387,-3.02 -2.4633,-6.4112 -3.1436,-9.7508 z"
                    id="path63"
                    inkscape:connector-curvature="0"/>
            <path
                    d="m -1831.18,-669.99825 c -7.5347,-1.2472 -16.028,0.6803 -21.1302,6.6689 -8.1532,8.8953 -8.4933,24.5832 0.6082,32.9425 2.783,2.6799 6.4834,4.628 10.4208,4.5868 6.3391,0.0824 13.5749,0.6287 18.8419,-3.5252 4.8651,-6.1432 4.7002,-14.4716 4.6177,-21.9033 -0.093,-5.298 0.536,-11.5855 -3.6076,-15.6261 -3.02,-1.6387 -6.4112,-2.4633 -9.7508,-3.1436 z"
                    id="path71"
                    inkscape:connector-curvature="0"/>
        </g>
    </g>
</svg>
